<svg xmlns="http://www.w3.org/2000/svg" viewBox="0 0 20 20"><title>compare-split</title><path d="M18.8,13.6H11.6V6.4h7.2m0-1.2H11.6a1.2,1.2,0,0,0-1.2,1.2v7.2a1.2,1.2,0,0,0,1.2,1.2h7.2A1.2,1.2,0,0,0,20,13.6V6.4A1.2,1.2,0,0,0,18.8,5.2Z"/><path d="M13.1,7.2h2.8l.6.2.4.4a1.3,1.3,0,0,1,.2.7,1.2,1.2,0,0,1-.3.8l-.7.4h.5l.4.3.3.4a1.4,1.4,0,0,1,.1.5,1.5,1.5,0,0,1-.2.8l-.5.5-.7.3H13.1Zm1,2.3H15l.8-.2a.7.7,0,0,0,0-1.1L14.9,8h-.8Zm0,2.5h1.7l.3-.3a.7.7,0,0,0,.1-.4.7.7,0,0,0-.3-.6l-.9-.2h-1Z"/><path d="M8.4,13.6H1.2V6.4H8.4m0-1.2H1.2A1.2,1.2,0,0,0,0,6.4v7.2a1.2,1.2,0,0,0,1.2,1.2H8.4a1.2,1.2,0,0,0,1.2-1.2V6.4A1.2,1.2,0,0,0,8.4,5.2Z"/><path d="M4.4,7.2h.9l2.4,5.7H6.5L6,11.5H3.6L3,12.8H1.9Zm1.3,3.5L4.8,8.4l-.9,2.3Z"/></svg>