<svg xmlns="http://www.w3.org/2000/svg" viewBox="0 0 20 20"><title>global-search</title><path d="M14.4,12a16.5,16.5,0,0,0,.1-2,16.5,16.5,0,0,0-.1-2h3.4a8.2,8.2,0,0,1,.3,2,8.2,8.2,0,0,1-.3,2m-5.1,5.6A15.6,15.6,0,0,0,14,14h2.9a8,8,0,0,1-4.3,3.6M12,12H7.7a13.3,13.3,0,0,1-.2-2,13.2,13.2,0,0,1,.2-2h4.7a14.6,14.6,0,0,1,.2,2,14.7,14.7,0,0,1-.2,2M10,18a13.6,13.6,0,0,1-1.9-4h3.8A13.6,13.6,0,0,1,10,18M6,6H3.1A7.9,7.9,0,0,1,7.4,2.4,17.2,17.2,0,0,0,6,6M3,14H6a17.2,17.2,0,0,0,1.4,3.6A8,8,0,0,1,3.1,14m-.8-2A8.2,8.2,0,0,1,2,10a8.2,8.2,0,0,1,.3-2H5.6a16.5,16.5,0,0,0-.1,2,16.5,16.5,0,0,0,.1,2M10,2a13.6,13.6,0,0,1,1.9,4H8.1A13.6,13.6,0,0,1,10,2m7,4H14a15.6,15.6,0,0,0-1.4-3.6A8,8,0,0,1,16.9,6M10,0A10,10,0,1,0,20,10,10,10,0,0,0,10,0Z"/></svg>