<svg xmlns="http://www.w3.org/2000/svg" viewBox="0 0 20 20"><title>settings</title><path d="M10,13.9a3.5,3.5,0,1,1,3.5-3.5A3.5,3.5,0,0,1,10,13.9M17.4,11a7.8,7.8,0,0,0,.1-1,8.6,8.6,0,0,0-.1-1l2.1-1.6a.5.5,0,0,0,.1-.6l-2-3.5a.5.5,0,0,0-.6-.2l-2.5,1a7.2,7.2,0,0,0-1.7-1L12.5.4A.5.5,0,0,0,12,0H8a.5.5,0,0,0-.5.4L7.1,3.1a7.2,7.2,0,0,0-1.7,1L3,3.1a.5.5,0,0,0-.6.2L.3,6.7a.5.5,0,0,0,.1.6L2.6,9a8.6,8.6,0,0,0-.1,1,7.8,7.8,0,0,0,.1,1L.5,12.6a.5.5,0,0,0-.1.6l2,3.5A.5.5,0,0,0,3,17l2.5-1a6.9,6.9,0,0,0,1.7,1l.4,2.6A.5.5,0,0,0,8,20h4a.5.5,0,0,0,.5-.4l.4-2.6a7.3,7.3,0,0,0,1.7-1l2.5,1a.5.5,0,0,0,.6-.2l2-3.5a.5.5,0,0,0-.1-.6Z"/></svg>