<svg xmlns="http://www.w3.org/2000/svg" xmlns:xlink="http://www.w3.org/1999/xlink" viewBox="0 0 22.6 40"><defs><linearGradient id="a" y1="20" x2="22.62" y2="20" gradientUnits="userSpaceOnUse"><stop offset="0" stop-color="#2284ff"/><stop offset="1" stop-color="#00e4ff"/></linearGradient></defs><title>buget</title><path d="M12.2,17.6c-5-1.3-6.7-2.7-6.7-4.8s2.2-4.1,6-4.1,5.4,1.9,5.6,4.7H22a8.9,8.9,0,0,0-7.1-8.5V0H8.2V4.8C3.9,5.7.4,8.5.4,12.8S4.6,20.5,10.8,22s6.7,3.3,6.7,5.4-1.1,4-6,4-6.4-2-6.7-4.7H0c.3,4.9,3.9,7.6,8.2,8.5V40h6.7V35.2c4.3-.8,7.8-3.3,7.8-7.9C22.6,21,17.2,18.9,12.2,17.6Z" style="fill:url(#a)"/></svg>