<svg xmlns="http://www.w3.org/2000/svg" xmlns:xlink="http://www.w3.org/1999/xlink" viewBox="0 0 43.6 40"><defs><linearGradient id="a" x1="-18.16" y1="43.11" x2="39.18" y2="3.11" gradientUnits="userSpaceOnUse"><stop offset="0" stop-color="#2284ff"/><stop offset="1" stop-color="#00e4ff"/></linearGradient></defs><title>favorites</title><path d="M22,33.1l-.2.2-.2-.2C11.2,23.7,4.4,17.5,4.4,11.2A7.4,7.4,0,0,1,12,3.6a8.6,8.6,0,0,1,7.8,5.1h4.1a8.6,8.6,0,0,1,7.8-5.1,7.4,7.4,0,0,1,7.6,7.6c0,6.3-6.8,12.5-17.2,21.9M31.6,0a13.1,13.1,0,0,0-9.8,4.5A13.1,13.1,0,0,0,12,0,11.9,11.9,0,0,0,0,12c0,8.2,7.4,15,18.6,25.1L21.8,40,25,37.1C36.2,26.9,43.6,20.2,43.6,12A11.9,11.9,0,0,0,31.6,0Z" style="fill:url(#a)"/></svg>