<svg xmlns="http://www.w3.org/2000/svg" xmlns:xlink="http://www.w3.org/1999/xlink" viewBox="0 0 43.5 40"><defs><linearGradient id="a" x1="-4.38" y1="45.32" x2="57.62" y2="-4.68" gradientUnits="userSpaceOnUse"><stop offset="0" stop-color="#2284ff"/><stop offset="1" stop-color="#00e4ff"/></linearGradient><linearGradient id="b" x1="-5.76" y1="43.61" x2="56.24" y2="-6.39" xlink:href="#a"/></defs><title>recently-viewed</title><polygon points="24.6 10.1 24.6 21.5 34.3 27.3 32.7 29.9 21.3 23.1 21.3 10.1 24.6 10.1" style="fill:url(#a)"/><path d="M42.5,13.8A20,20,0,0,0,17.3,1a20.1,20.1,0,0,0-13,13.3H0L6.5,25.5,13,14.2h-4a15.7,15.7,0,0,1,9.7-9.1,15.7,15.7,0,0,1,18.8,22,15.7,15.7,0,0,1-21.9,6.4l-2.2,3.7A20,20,0,0,0,42.5,13.8Z" style="fill:url(#b)"/></svg>