<svg xmlns="http://www.w3.org/2000/svg" xmlns:xlink="http://www.w3.org/1999/xlink" viewBox="0 0 39.7 40"><defs><linearGradient id="a" y1="20" x2="39.72" y2="20" gradientUnits="userSpaceOnUse"><stop offset="0" stop-color="#2284ff"/><stop offset="1" stop-color="#00e4ff"/></linearGradient></defs><title>task-manager</title><path d="M17,25.2l-4.2-4.2L10.6,23l6.3,6.3L28.9,17.4l-2.1-2.1L17,25.2M19.9,36A13.9,13.9,0,1,1,33.8,22.1,13.9,13.9,0,0,1,19.9,36m0-31.8A17.9,17.9,0,1,0,37.7,22.1,17.9,17.9,0,0,0,19.9,4.3M11.7,3,9.1,0,0,7.6l2.6,3L11.7,3m28,4.6L30.6,0,28,3l9.1,7.7Z" style="fill:url(#a)"/></svg>