<svg xmlns="http://www.w3.org/2000/svg" xmlns:xlink="http://www.w3.org/1999/xlink" viewBox="0 0 61.3 40"><defs><linearGradient id="a" x1="-0.8" y1="51.31" x2="55.2" y2="7.31" gradientUnits="userSpaceOnUse"><stop offset="0" stop-color="#2284ff"/><stop offset="1" stop-color="#00e4ff"/></linearGradient></defs><title>teams</title><path d="M61.3,40H42.7V32c0-3.2-1.5-5.8-4.7-8.1l-2.7-1.9,3.3-.5h2.8c5.9,0,20,3.1,20,10.7Zm-16-2.7H58.7V32c0-4.8-10.3-7.7-16.5-8a11.5,11.5,0,0,1,3.2,8ZM40,40H0V32c0-7.6,14.1-10.7,20-10.7S40,24.4,40,32ZM2.7,37.3H37.3V32c0-5-11.2-8-17.3-8S2.7,27,2.7,32ZM41.3,18.7a9.3,9.3,0,1,1,9.3-9.3A9.3,9.3,0,0,1,41.3,18.7Zm0-16A6.7,6.7,0,1,0,48,9.3,6.7,6.7,0,0,0,41.3,2.7ZM20,18.7a9.3,9.3,0,1,1,9.3-9.3A9.3,9.3,0,0,1,20,18.7Zm0-16a6.7,6.7,0,1,0,6.7,6.7A6.7,6.7,0,0,0,20,2.7Z" style="fill:url(#a)"/></svg>