<svg xmlns="http://www.w3.org/2000/svg">
    <symbol id="add-new" viewBox="0 0 20 20">
      <title>add-new</title><path d="M15,11H11v4H9V11H5V9H9V5h2V9h4M10,0A10,10,0,1,0,20,10,10,10,0,0,0,10,0Z"/>
    </symbol>
    <symbol id="admin" viewBox="0 0 20 20">
      <title>admin</title><path d="M19.7,16.3,11.5,8a5.8,5.8,0,0,0-1.4-6.3A6,6,0,0,0,3.4.6L7.3,4.5,4.6,7.2.6,3.3A5.9,5.9,0,0,0,1.8,10,5.8,5.8,0,0,0,8,11.4l8.3,8.3a.9.9,0,0,0,1.3,0l2.1-2.1A.8.8,0,0,0,19.7,16.3Z"/>
    </symbol>
    <symbol id="advanced-search-toggle" viewBox="0 0 24 24">
      <title>advanced-search-toggle</title><path d="M3,17v2H9V17H3M3,5V7H13V5H3M13,21V19h8V17H13V15H11v6h2M7,9v2H3v2H7v2H9V9H7m14,4V11H11v2H21M15,9h2V7h4V5H17V3H15Z"/>
    </symbol>
    <symbol id="advanced-search" viewBox="0 0 20 20">
      <title>advanced-search</title><path d="M1,15v2H7V15H1M1,3V5H11V3H1M11,19V17h8V15H11V13H9v6h2M5,7V9H1v2H5v2H7V7H5m14,4V9H9v2H19M13,7h2V5h4V3H15V1H13Z"/>
    </symbol>
    <symbol id="arrow-left-thick" viewBox="0 0 20 20">
      <title>arrow-left-thick</title><path d="M18,8v4H9l3.5,3.5-2.4,2.4L2.2,10l7.9-7.9,2.4,2.4L9,8Z"/>
    </symbol>
    <symbol id="arrow-right-thick" viewBox="0 0 20 20">
      <title>arrow-right-thick</title><path d="M2,8v4h9L7.5,15.5l2.4,2.4L17.8,10,9.9,2.1,7.5,4.5,11,8Z"/>
    </symbol>
    <symbol id="rename" viewBox="0 0 20 20">
      <title>rename</title><path d="M17.8,17.8V2.2H2.2V17.8H17.8M17.8,0A2.2,2.2,0,0,1,20,2.2V17.8A2.2,2.2,0,0,1,17.8,20H2.2A2.2,2.2,0,0,1,0,17.8V2.2A2.2,2.2,0,0,1,2.2,0H17.8M15.2,7.1,14.1,8.2,11.8,5.9l1.1-1.1a.6.6,0,0,1,.9,0l1.4,1.4a.6.6,0,0,1,0,.9M4.4,13.3l6.7-6.7,2.3,2.3L6.7,15.6H4.4Z"/>
    </symbol>
    <symbol id="assets" viewBox="0 0 20 20">
      <title>assets</title><path d="M16,17.5H1.9A1.9,1.9,0,0,1,0,15.7V4.3A1.9,1.9,0,0,1,1.9,2.5H7.5L9.4,4.3H16a1.9,1.9,0,0,1,1.9,1.9H1.9v9.4l2-7.5H20l-2.1,8A1.9,1.9,0,0,1,16,17.5Z"/>
    </symbol>
    <symbol id="attachment" viewBox="0 0 20 20">
      <title>attachment</title><path d="M13.6,4.5V15a3.6,3.6,0,1,1-7.3,0V3.6a2.3,2.3,0,0,1,4.5,0v9.5a.9.9,0,1,1-1.8,0V4.5H7.7v8.6a2.3,2.3,0,0,0,4.5,0V3.6A3.6,3.6,0,1,0,5,3.6V15a5,5,0,0,0,10,0V4.5Z"/>
    </symbol>
    <symbol id="audio" viewBox="0 0 20 20">
      <title>audio</title><path d="M14,6.7v-2H10v5.5a2.5,2.5,0,0,0-2.1-.4,2.4,2.4,0,0,0-1.8,1.6,2.5,2.5,0,0,0,3.1,3.2A2.6,2.6,0,0,0,11,12.1V6.7h3M10,0A10,10,0,1,1,0,10,10,10,0,0,1,10,0Z"/>
    </symbol>
    <symbol id="budget" viewBox="0 0 20 20">
      <title>budget</title><path d="M10.4,8.8C7.9,8.1,7.1,7.4,7.1,6.4s1.1-2.1,3-2.1,2.7.9,2.8,2.3h2.5a4.4,4.4,0,0,0-3.6-4.2V0H8.4V2.4c-2.2.5-3.9,1.9-3.9,4S6.7,10.3,9.8,11s3.3,1.6,3.3,2.7-.5,2-3,2-3.2-1-3.3-2.3H4.3c.1,2.4,2,3.8,4.1,4.3V20h3.3V17.6c2.2-.4,3.9-1.7,3.9-3.9S13,9.4,10.4,8.8Z"/>
    </symbol>
    <symbol id="calendar" viewBox="0 0 20 20">
      <title>calendar</title><path d="M17,18H3V7H17M14,0V2H6V0H4V2H3A2,2,0,0,0,1,4V18a2,2,0,0,0,2,2H17a2,2,0,0,0,2-2V4a2,2,0,0,0-2-2H16V0"/>
    </symbol>
    <symbol id="chevron-down" viewBox="0 0 20 20">
      <title>chevron-down</title><path d="M5.4,6.3,10,10.9l4.6-4.6L16,7.7l-6,6-6-6Z"/>
    </symbol>
    <symbol id="chevron-left" viewBox="0 0 20 20">
      <title>chevron-left</title><path d="M13.7,14.6,9.1,10l4.6-4.6L12.3,4l-6,6,6,6Z"/>
    </symbol>
    <symbol id="chevron-right" viewBox="0 0 20 20">
      <title>chevron-right</title><path d="M6.3,14.6,10.9,10,6.3,5.4,7.7,4l6,6-6,6Z"/>
    </symbol>
    <symbol id="chevron-up" viewBox="0 0 20 20">
      <title>chevron-up</title><path d="M5.4,13.7,10,9.1l4.6,4.6L16,12.3l-6-6-6,6Z"/>
    </symbol>
    <symbol id="close" viewBox="0 0 20 20">
      <title>close</title><path d="M20,2,18,0,10,8,2,0,0,2l8,8L0,18l2,2,8-8,8,8,2-2-8-8Z"/>
    </symbol>
    <symbol id="collection" viewBox="0 0 20 20">
      <title>collection</title><path d="M0,8.9H8.9V0H0M0,20H8.9V11.1H0M11.1,20H20V11.1H11.1M11.1,0V8.9H20V0"/>
    </symbol>
    <symbol id="comments" viewBox="0 0 20 20">
      <title>comments</title><path d="M7,20a1,1,0,0,1-1-1V16H2a2,2,0,0,1-2-2V2A2,2,0,0,1,2,0H18a2,2,0,0,1,2,2V14a2,2,0,0,1-2,2H11.9L8.2,19.7a1,1,0,0,1-.7.3H7m1-6v3.1L11.1,14H18V2H2V14H8M4,5H16V7H4V5M4,9h9v2H4Z"/>
    </symbol>
    <symbol id="compare-pixel" viewBox="0 0 20 20">
      <title>compare-pixel</title><path d="M1.9,0A1.9,1.9,0,0,0,0,1.9V12.4a1.9,1.9,0,0,0,1.9,1.9H3.8V12.4H1.9V1.9H12.4V3.8h1.9V1.9A1.9,1.9,0,0,0,12.4,0H1.9M7.6,5.7A1.9,1.9,0,0,0,5.7,7.6V9.5H7.6V7.6H9.5V5.7H7.6m3.8,0V7.6h1v1h1.9V5.7H11.4m4.8,0V7.6h1.9V18.1H7.6V16.2H5.7v1.9A1.9,1.9,0,0,0,7.6,20H18.1A1.9,1.9,0,0,0,20,18.1V7.6a1.9,1.9,0,0,0-1.9-1.9H16.2m-3.8,4.8v1.9H10.5v1.9h1.9a1.9,1.9,0,0,0,1.9-1.9V10.5H12.4m-6.7,1v2.9H8.6V12.4h-1v-1Z"/>
    </symbol>
    <symbol id="compare-slider" viewBox="0 0 20 20">
      <title>compare-slider</title><path d="M10,14.7l7.7-6,1.7-1.3L10,0,.6,7.3,2.3,8.7M10,17.3l-7.7-6L.6,12.7,10,20l9.4-7.3-1.7-1.3Z"/>
    </symbol>
    <symbol id="compare-split" viewBox="0 0 20 20">
      <title>compare-split</title><path d="M18.8,13.6H11.6V6.4h7.2m0-1.2H11.6a1.2,1.2,0,0,0-1.2,1.2v7.2a1.2,1.2,0,0,0,1.2,1.2h7.2A1.2,1.2,0,0,0,20,13.6V6.4A1.2,1.2,0,0,0,18.8,5.2Z"/><path d="M13.1,7.2h2.8l.6.2.4.4a1.3,1.3,0,0,1,.2.7,1.2,1.2,0,0,1-.3.8l-.7.4h.5l.4.3.3.4a1.4,1.4,0,0,1,.1.5,1.5,1.5,0,0,1-.2.8l-.5.5-.7.3H13.1Zm1,2.3H15l.8-.2a.7.7,0,0,0,0-1.1L14.9,8h-.8Zm0,2.5h1.7l.3-.3a.7.7,0,0,0,.1-.4.7.7,0,0,0-.3-.6l-.9-.2h-1Z"/><path d="M8.4,13.6H1.2V6.4H8.4m0-1.2H1.2A1.2,1.2,0,0,0,0,6.4v7.2a1.2,1.2,0,0,0,1.2,1.2H8.4a1.2,1.2,0,0,0,1.2-1.2V6.4A1.2,1.2,0,0,0,8.4,5.2Z"/><path d="M4.4,7.2h.9l2.4,5.7H6.5L6,11.5H3.6L3,12.8H1.9Zm1.3,3.5L4.8,8.4l-.9,2.3Z"/>
    </symbol>
    <symbol id="compare-view" viewBox="0 0 20 20">
      <title>compare-view</title><path d="M20,18.9V1a1,1,0,0,0-1-1H12.1a1,1,0,0,0-1,1V19a1,1,0,0,0,1,1h6.8A1.1,1.1,0,0,0,20,18.9M8.9,19V1a1,1,0,0,0-1-1H1A1,1,0,0,0,0,1V19a1,1,0,0,0,1,1H7.9A1,1,0,0,0,8.9,19Z"/>
    </symbol>
    <symbol id="dashboard" viewBox="0 0 20 20">
      <title>dashboard</title><path d="M10,14A3,3,0,0,1,8.5,8.4l9.7-5.6-5.5,9.6A3,3,0,0,1,10,14M10,1.3a10.2,10.2,0,0,1,5,1.3L12.9,3.9A8,8,0,0,0,4.3,17h0a1,1,0,0,1,0,1.4,1,1,0,0,1-1.4,0h0A10,10,0,0,1,10,1.3M20,11A10,10,0,0,1,17.1,18h0a1,1,0,0,1-1.4-1.4h0A7.9,7.9,0,0,0,18,11a8.1,8.1,0,0,0-.5-2.9L18.7,6A10.3,10.3,0,0,1,20,11Z"/>
    </symbol>
    <symbol id="delete" viewBox="0 0 20 20">
      <title>delete</title><path d="M17.8,1.1H13.5L12.4,0H6.9L5.7,1.1H2.2V3.3H17.8M5.6,20h8.9a2.2,2.2,0,0,0,2.2-2.2V4.4H3.3V17.8A2.2,2.2,0,0,0,5.6,20Z"/>
    </symbol>
    <symbol id="dots-horizontal" viewBox="0 0 20 20">
      <title>dots-horizontal</title><path d="M14,10a2,2,0,1,1,2,2,2,2,0,0,1-2-2M8,10a2,2,0,1,1,2,2,2,2,0,0,1-2-2M2,10a2,2,0,1,1,2,2A2,2,0,0,1,2,10Z"/>
    </symbol>
    <symbol id="dots-vertical" viewBox="0 0 20 20">
      <title>dots-vertical</title><path d="M10,14a2,2,0,1,1-2,2,2,2,0,0,1,2-2m0-6a2,2,0,1,1-2,2,2,2,0,0,1,2-2m0-6A2,2,0,1,1,8,4,2,2,0,0,1,10,2Z"/>
    </symbol>
    <symbol id="double-chevron-down" viewBox="0 0 20 20">
      <title>double-chevron-down</title><path d="M14.6,3.3,16,4.7l-6,6-6-6L5.4,3.3,10,7.9l4.6-4.6m0,6L16,10.7l-6,6-6-6L5.4,9.3,10,13.9Z"/>
    </symbol>
    <symbol id="double-chevron-left" viewBox="0 0 20 20">
      <title>double-chevron-left</title><path d="M16.7,5.4,15.3,4l-6,6,6,6,1.4-1.4L12.1,10l4.6-4.6m-6,0L9.3,4l-6,6,6,6,1.4-1.4L6.1,10Z"/>
    </symbol>
    <symbol id="double-chevron-right" viewBox="0 0 20 20">
      <title>double-chevron-right</title><path d="M3.3,5.4,4.7,4l6,6-6,6L3.3,14.6,7.9,10,3.3,5.4m6,0L10.7,4l6,6-6,6L9.3,14.6,13.9,10Z"/>
    </symbol>
    <symbol id="double-chevron-up" viewBox="0 0 20 20">
      <title>double-chevron-up</title><path d="M5.4,16.7,4,15.3l6-6,6,6-1.4,1.4L10,12.1,5.4,16.7m0-6L4,9.3l6-6,6,6-1.4,1.4L10,6.1Z"/>
    </symbol>
    <symbol id="download" viewBox="0 0 20 20">
      <title>download</title><path d="M1.8,20H18.2V17.6H1.8M18.2,7.1H13.5V0H6.5V7.1H1.8L10,15.3Z"/>
    </symbol>
    <symbol id="favorite-false" viewBox="0 0 20 20">
      <title>favorite-false</title><path d="M10.1,16H9.9C5.1,11.7,2,8.9,2,6A3.4,3.4,0,0,1,5.5,2.5,3.9,3.9,0,0,1,9.1,4.8h1.9a3.9,3.9,0,0,1,3.6-2.4A3.4,3.4,0,0,1,18,6c0,2.9-3.1,5.7-7.9,10M14.5.8A6,6,0,0,0,10,2.9,6,6,0,0,0,5.5.8,5.4,5.4,0,0,0,0,6.3c0,3.8,3.4,6.9,8.6,11.5L10,19.2l1.4-1.3C16.6,13.2,20,10.1,20,6.3A5.4,5.4,0,0,0,14.5.8Z"/>
    </symbol>
    <symbol id="favorite-true" viewBox="0 0 20 20">
      <title>favorite-true</title><path d="M10,19.2,8.6,17.9C3.4,13.2,0,10.1,0,6.3A5.4,5.4,0,0,1,5.5.8,6,6,0,0,1,10,2.9,6,6,0,0,1,14.5.8,5.4,5.4,0,0,1,20,6.3c0,3.8-3.4,6.9-8.6,11.5Z"/>
    </symbol>
    <symbol id="file-audio" viewBox="0 0 20 20">
      <title>file-audio</title><path d="M11,7h5.5L11,1.5V7M4,0h8l6,6V18a2,2,0,0,1-2,2H4a2,2,0,0,1-2-2V2A2,2,0,0,1,4,0M7,14a2,2,0,1,0,.7,3.9,2,2,0,0,0,1.3-2V11h3V9H8v5.3Z"/>
    </symbol>
    <symbol id="file-document" viewBox="0 0 20 20">
      <title>file-document</title><path d="M11,7h5.5L11,1.5V7M4,0h8l6,6V18a2,2,0,0,1-2,2H4a2,2,0,0,1-2-2V2A2,2,0,0,1,4,0m9,16V14H4v2h9m3-4V10H4v2Z"/>
    </symbol>
    <symbol id="file-image" viewBox="0 0 20 20">
      <title>file-image</title><path d="M11,7h5.5L11,1.5V7M4,0h8l6,6V18a2,2,0,0,1-2,2H4a2,2,0,0,1-2-2V2A2,2,0,0,1,4,0M4,18H16V10l-4,4-2-2L4,18M6.4,7.3a2,2,0,1,0,2,2A2,2,0,0,0,6.4,7.3Z"/>
    </symbol>
    <symbol id="file-move" viewBox="0 0 20 20">
      <title>file-move</title><path d="M12,0H4A2,2,0,0,0,2,2V18a2,2,0,0,0,2,2H16a2,2,0,0,0,2-2V6L12,0M11,17V15H7V13h4V11l3,3-3,3M11,7V1.5L16.5,7Z"/>
    </symbol>
    <symbol id="file-tree" viewBox="0 0 20 20">
      <title>file-tree</title><path d="M1,1H7V5H1V1M13,8h6v4H13V8m0,7h6v4H13V15m-2-4H5v5h6v2H3V7H5V9h6Z"/>
    </symbol>
    <symbol id="file-video" viewBox="0 0 20 20">
      <title>file-video</title><path d="M11,7h5.5L11,1.5V7M4,0h8l6,6V18a2,2,0,0,1-2,2H4a2,2,0,0,1-2-2V2A2,2,0,0,1,4,0M15,17V11l-3,2.2V11H5v6h7V14.8Z"/>
    </symbol>
    <symbol id="filter" viewBox="0 0 20 20">
      <title>filter</title><path d="M1-.5H19v2h-.1L12,8.5v12l-4-4v-8L1.1,1.5H1Z"/>
    </symbol>
    <symbol id="find-replace" viewBox="0 0 20 20">
      <title>find-replace</title><path d="M8,2.3A5.7,5.7,0,0,1,12,4L9.1,6.9H16V0L13.7,2.3A8,8,0,0,0,.1,6.9H2.4A5.7,5.7,0,0,1,8,2.3m6.4,10.4a7.9,7.9,0,0,0,1.5-3.6H13.6A5.7,5.7,0,0,1,4,12L6.9,9.1H0V16l2.3-2.3A8,8,0,0,0,8,16a7.9,7.9,0,0,0,4.7-1.6L18.3,20,20,18.3Z"/>
    </symbol>
    <symbol id="flag-outline" viewBox="0 0 20 20">
      <title>flag-outline</title><path d="M11.8,2.4h7.1V14.1H10.6L10,11.8H3.5V20H1.2V0h10l.6,2.4m-8.2,0V9.4h7.1l.6,2.4h5.3V4.7H11.8l-.6-2.4Z"/>
    </symbol>
    <symbol id="flag-solid" viewBox="0 0 20 20">
      <title>flag-solid</title><path d="M12.2,2.4,11.8,0H1.2V20H3.5V11.8h6.6l.5,2.4h8.2V2.4Z"/>
    </symbol>
    <symbol id="focus-check" viewBox="0 0 20 20">
      <title>focus-check</title><path d="M9,0V2.1A8,8,0,0,0,2.1,9H0v2H2.1A8,8,0,0,0,9,17.9V20h2V17.9A8,8,0,0,0,17.9,11H20V9H17.9A8,8,0,0,0,11,2.1V0M9,4.1V6h2V4.1A6,6,0,0,1,15.9,9H14v2h1.9A6,6,0,0,1,11,15.9V14H9v1.9A6,6,0,0,1,4.1,11H6V9H4.1A6,6,0,0,1,9,4.1M10,9a1,1,0,1,0,1,1A1,1,0,0,0,10,9Z"/>
    </symbol>
    <symbol id="folder-closed" viewBox="0 0 20 20">
      <title>folder-closed</title><path d="M18,4H10L8,2H2A2,2,0,0,0,0,4V16a2,2,0,0,0,2,2H18a2,2,0,0,0,2-2V6A2,2,0,0,0,18,4Zm-4.2,6.6L7,16V5.3Z"/>
    </symbol>
    <symbol id="folder-empty" viewBox="0 0 20 20">
      <title>folder-empty</title><path d="M18,16H2V6H18m0-2H10L8,2H2A2,2,0,0,0,0,4V16a2,2,0,0,0,2,2H18a2,2,0,0,0,2-2V6A2,2,0,0,0,18,4Z"/>
    </symbol>
    <symbol id="folder-open" viewBox="0 0 20 20">
      <title>folder-open</title><path d="M18,4H10L8,2H2A2,2,0,0,0,0,4V16a2,2,0,0,0,2,2H18a2,2,0,0,0,2-2V6A2,2,0,0,0,18,4ZM10,15,4.3,7.7H15.7Z"/>
    </symbol>
    <symbol id="folder" viewBox="0 0 20 20">
      <title>folder</title><path d="M8,2H2A2,2,0,0,0,0,4V16a2,2,0,0,0,2,2H18a2,2,0,0,0,2-2V6a2,2,0,0,0-2-2H10Z"/>
    </symbol>
    <symbol id="full-page-view" viewBox="0 0 20 20">
      <title>full-page-view</title><path d="M7.2,11.2l1.6,1.6-5,5h4V20H0V12.2H2.2v3.6l5-5m1.6-4L7.2,8.4l-5-5V7.8H0V0H7.8V2.2h-4l5,5m4,3.6,5,5V12.2H20V20H12.2V17.8h4l-5-5,1.6-1.6m-1.6-4,5-5h-4V0H20V7.8H17.8v-4l-5,5Z"/>
    </symbol>
    <symbol id="fullscreen-view" viewBox="0 0 20 20">
      <title>fullscreen-view</title><path d="M0,0H7.1V2.9H2.9V7.1H0V0M12.9,0H20V7.1H17.1V2.9H12.9V0m4.3,12.9H20V20H12.9V17.1h4.3V12.9m-10,4.3V20H0V12.9H2.9v4.3Z"/>
    </symbol>
    <symbol id="global-search" viewBox="0 0 20 20">
      <title>global-search</title><path d="M14.4,12a16.5,16.5,0,0,0,.1-2,16.5,16.5,0,0,0-.1-2h3.4a8.2,8.2,0,0,1,.3,2,8.2,8.2,0,0,1-.3,2m-5.1,5.6A15.6,15.6,0,0,0,14,14h2.9a8,8,0,0,1-4.3,3.6M12,12H7.7a13.3,13.3,0,0,1-.2-2,13.2,13.2,0,0,1,.2-2h4.7a14.6,14.6,0,0,1,.2,2,14.7,14.7,0,0,1-.2,2M10,18a13.6,13.6,0,0,1-1.9-4h3.8A13.6,13.6,0,0,1,10,18M6,6H3.1A7.9,7.9,0,0,1,7.4,2.4,17.2,17.2,0,0,0,6,6M3,14H6a17.2,17.2,0,0,0,1.4,3.6A8,8,0,0,1,3.1,14m-.8-2A8.2,8.2,0,0,1,2,10a8.2,8.2,0,0,1,.3-2H5.6a16.5,16.5,0,0,0-.1,2,16.5,16.5,0,0,0,.1,2M10,2a13.6,13.6,0,0,1,1.9,4H8.1A13.6,13.6,0,0,1,10,2m7,4H14a15.6,15.6,0,0,0-1.4-3.6A8,8,0,0,1,16.9,6M10,0A10,10,0,1,0,20,10,10,10,0,0,0,10,0Z"/>
    </symbol>
    <symbol id="grid-view" viewBox="0 0 20 20">
      <title>grid-view</title><rect width="5.3" height="5.33"/><rect x="7.3" width="5.3" height="5.33"/><rect x="14.7" width="5.3" height="5.33"/><rect y="7.3" width="5.3" height="5.33"/><rect x="7.3" y="7.3" width="5.3" height="5.33"/><rect x="14.7" y="7.3" width="5.3" height="5.33"/><rect y="14.7" width="5.3" height="5.33"/><rect x="7.3" y="14.7" width="5.3" height="5.33"/><rect x="14.7" y="14.7" width="5.3" height="5.33"/>
    </symbol>
    <symbol id="group" viewBox="0 0 20 20">
      <title>group</title><path d="M13.6,10.9h-.9a3.8,3.8,0,0,1,1.8,3.1v2.3H20V14.1c0-2.1-4.2-3.2-6.4-3.2m-7.3,0C4.2,10.9,0,12,0,14.1v2.3H12.7V14.1c0-2.1-4.2-3.2-6.4-3.2m0-1.8A2.7,2.7,0,1,0,3.6,6.4,2.7,2.7,0,0,0,6.4,9.1m7.3,0a2.7,2.7,0,1,0-2.7-2.7A2.7,2.7,0,0,0,13.6,9.1Z"/>
    </symbol>
    <symbol id="help" viewBox="0 0 20 20">
      <title>help</title><path d="M12.7,8.9l-.9.9a3.4,3.4,0,0,0-1.2,2.8h-2v-.5A4,4,0,0,1,9.8,9.3l1.2-1.3a2,2,0,0,0,.6-1.8,2,2,0,0,0-4,.4h-2a4,4,0,0,1,4-4A4.1,4.1,0,0,1,13,4.5a3.3,3.3,0,0,1-.2,4.4m-2.1,7.8h-2v-2h2M10,0A10,10,0,1,0,20,10,10,10,0,0,0,10,0Z"/>
    </symbol>
    <symbol id="info" viewBox="0 0 20 20">
      <title>info</title><path d="M9,7h2V5H9m1,13a8,8,0,1,1,8-8,8,8,0,0,1-8,8M10,0A10,10,0,1,0,20,10,10,10,0,0,0,10,0M9,15h2V9H9Z"/>
    </symbol>
    <symbol id="instant-send" viewBox="0 0 20 20">
      <title>instant-send</title><path d="M0,18.6,20,10,0,1.4V8.1L14.3,10,0,11.9Z"/>
    </symbol>
    <symbol id="list-view" viewBox="0 0 20 20">
      <title>list-view</title><rect width="5.3" height="5.33"/><rect x="7.3" width="12.7" height="5.33"/><rect y="7.3" width="5.3" height="5.33"/><rect x="7.3" y="7.3" width="12.7" height="5.33"/><rect y="14.7" width="5.3" height="5.33"/><rect x="7.3" y="14.7" width="12.7" height="5.33"/>
    </symbol>
    <symbol id="locked" viewBox="0 0 20 20">
      <title>locked</title><path d="M10.1,15.8a2,2,0,1,0-2-2,2,2,0,0,0,2,2m5.9-9a2,2,0,0,1,2,2v9.7a2,2,0,0,1-2,2H4a2,2,0,0,1-2-2V8.5a2,2,0,0,1,2-2H5V4.7A5.1,5.1,0,0,1,9-.4a5,5,0,0,1,6,4.9v2h1M7,4.6V6.5h6v-2A3,3,0,0,0,9.4,1.6,3.1,3.1,0,0,0,7,4.6Z"/>
    </symbol>
    <symbol id="logout" viewBox="0 0 20 20">
      <title>logout</title><path d="M12.3,14l2.9-2.9H4.4V8.9H15.2L12.3,6l1.6-1.6L19.4,10l-5.6,5.6L12.3,14M17.8,0A2.2,2.2,0,0,1,20,2.2V7.8L17.8,5.6V2.2H2.2V17.8H17.8v-3L20,12.6v5.2A2.2,2.2,0,0,1,17.8,20H2.2A2.2,2.2,0,0,1,0,17.8V2.2A2.2,2.2,0,0,1,2.2,0Z"/>
    </symbol>
    <symbol id="magnify-minus" viewBox="0 0 20 20">
      <title>magnify-minus</title><path d="M14.3,12.6h-.9l-.3-.3a7.4,7.4,0,1,0-.8.8l.3.3v.9L18.3,20,20,18.3l-5.7-5.7m-6.9,0a5.1,5.1,0,1,1,5.1-5.1,5.1,5.1,0,0,1-5.1,5.1M4.6,6.9h5.7V8H4.6Z"/>
    </symbol>
    <symbol id="magnify-plus" viewBox="0 0 20 20">
      <title>magnify-plus</title><path d="M14.3,12.6,20,18.3,18.3,20l-5.7-5.7v-.9l-.3-.3a7.4,7.4,0,1,1,.8-.8l.3.3h.9m-6.9,0A5.1,5.1,0,1,0,2.3,7.4a5.1,5.1,0,0,0,5.1,5.1M10.3,8H8v2.3H6.9V8H4.6V6.9H6.9V4.6H8V6.9h2.3Z"/>
    </symbol>
    <symbol id="menu-down" viewBox="0 0 20 20">
      <title>menu-down</title><path d="M5,7.5l5,5,5-5Z"/>
    </symbol>
    <symbol id="menu-left" viewBox="0 0 20 20">
      <title>menu-left</title><path d="M12.5,5l-5,5,5,5Z"/>
    </symbol>
    <symbol id="menu-right" viewBox="0 0 20 20">
      <title>menu-right</title><path d="M7.5,15l5-5-5-5Z"/>
    </symbol>
    <symbol id="menu-up" viewBox="0 0 20 20">
      <title>menu-up</title><path d="M5,12.5l5-5,5,5Z"/>
    </symbol>
    <symbol id="message" viewBox="0 0 20 20">
      <title>message</title><path d="M18,6l-8,5L2,6V4l8,5,8-5m0-2H2A2,2,0,0,0,0,4V16a2,2,0,0,0,2,2H18a2,2,0,0,0,2-2V4A2,2,0,0,0,18,2Z"/>
    </symbol>
    <symbol id="milestones" viewBox="0 0 20 20">
      <title>milestones</title><path d="M8.6,12.6,6.4,10.5,5.4,11.5l3.2,3.2,6-6L13.4,7.7,8.6,12.6M10,18a7,7,0,1,1,7-7,7,7,0,0,1-7,7M10,2.1a8.9,8.9,0,1,0,8.9,8.9A8.9,8.9,0,0,0,10,2.1M5.9,1.5,4.6,0,.1,3.8,1.4,5.3,5.9,1.5m14,2.3L15.4,0,14.1,1.5l4.6,3.8Z"/>
    </symbol>
    <symbol id="modify-collection" viewBox="0 0 20 20">
      <title>modify-collection</title><polyline points="0 8.9 8.9 8.9 8.9 0 0 0"/><polyline points="0 20 8.9 20 8.9 11.1 0 11.1"/><polyline points="11.1 0 11.1 8.9 20 8.9 20 0"/><polygon points="16.7 14.4 20 14.4 20 16.7 16.7 16.7 16.7 20 14.4 20 14.4 16.7 11.1 16.7 11.1 14.4 14.4 14.4 14.4 11.1 16.7 11.1 16.7 14.4"/>
    </symbol>
    <symbol id="move" viewBox="0 0 20 20">
      <title>move</title><path d="M10.9,4.4V9.1h4.6v-3L19.5,10l-3.9,3.9v-3H10.9v4.6h3L10,19.5,6.1,15.6h3V10.9H4.4v3L.5,10,4.4,6.1v3H9.1V4.4h-3L10,.5l3.9,3.9Z"/>
    </symbol>
    <symbol id="notification" viewBox="0 0 20 20">
      <title>notification</title><path d="M11.7,18.2a2,2,0,0,1-4,0H12M10-.2a1,1,0,0,1,1,1V2.2a6,6,0,0,1,5,5.9v6l3,3H1l3-3v-6A6,6,0,0,1,9,2.2V.8A1,1,0,0,1,10-.2Z"/>
    </symbol>
    <symbol id="orientation-landscape" viewBox="0 0 20 20">
      <title>orientation-landscape</title><path d="M17.8,15.6H2.2V4.4H17.8m0-2.2H2.2A2.2,2.2,0,0,0,0,4.4V15.6a2.2,2.2,0,0,0,2.2,2.2H17.8A2.2,2.2,0,0,0,20,15.6V4.4A2.2,2.2,0,0,0,17.8,2.2Z"/>
    </symbol>
    <symbol id="orientation-portrait" viewBox="0 0 20 20">
      <title>orientation-portrait</title><path d="M15.6,17.8H4.4V2.2H15.6m0-2.2H4.4A2.2,2.2,0,0,0,2.2,2.2V17.8A2.2,2.2,0,0,0,4.4,20H15.6a2.2,2.2,0,0,0,2.2-2.2V2.2A2.2,2.2,0,0,0,15.6,0Z"/>
    </symbol>
    <symbol id="orientation-square" viewBox="0 0 20 20">
      <title>orientation-square</title><path d="M17.5,17.5H2.5V2.5h15m0-2.5H2.5A2.5,2.5,0,0,0,0,2.5v15A2.5,2.5,0,0,0,2.5,20h15A2.5,2.5,0,0,0,20,17.5V2.5A2.5,2.5,0,0,0,17.5,0Z"/>
    </symbol>
    <symbol id="pin" viewBox="0 0 20 20">
      <title>pin</title><path d="M14,10V2h1V0H5V2H6v8L4,12v2H9.2v6h1.6V14H16V12Z"/>
    </symbol>
    <symbol id="plus" viewBox="0 0 20 20">
      <title>plus</title><path d="M20,11.4H11.4V20H8.6V11.4H0V8.6H8.6V0h2.9V8.6H20Z"/>
    </symbol>
    <symbol id="print-proofsheet" viewBox="0 0 20 20">
      <title>print-proofsheet</title><path d="M16,1H4V5H16m1,5a1,1,0,1,1,1-1,1,1,0,0,1-1,1m-3,7H6V12h8m3-6H3A3,3,0,0,0,0,9v6H4v4H16V15h4V9A3,3,0,0,0,17,6Z"/>
    </symbol>
    <symbol id="recent" viewBox="0 0 20 20">
      <title>recent</title><polygon points="9.8 5 9.8 11 15.1 14.2 15.8 12.9 11.3 10.3 11.3 5 9.8 5"/><path d="M19.6,7.2A9.2,9.2,0,0,0,8,1.2,9.3,9.3,0,0,0,2,7.4H0l3,5.2,3-5.2H4.1A7.3,7.3,0,0,1,8.6,3.1,7.2,7.2,0,1,1,7.1,16.2L6.1,18A9.2,9.2,0,0,0,19.6,7.2Z"/>
    </symbol>
    <symbol id="rotate-left" viewBox="0 0 20 20">
      <title>rotate-left</title><path d="M11,3.2V0L6.2,4.8,11,9.5V5.4a6.3,6.3,0,0,1,0,12.5V20A8.4,8.4,0,0,0,11,3.2M4.8,18.3A8.4,8.4,0,0,0,8.9,20V17.9a6.2,6.2,0,0,1-2.6-1.1L4.8,18.3M3.7,12.7H1.6a8.4,8.4,0,0,0,1.7,4.1l1.5-1.5a6.3,6.3,0,0,1-1.1-2.6M4.8,8,3.3,6.5a8.4,8.4,0,0,0-1.7,4.1H3.7A6.3,6.3,0,0,1,4.8,8Z"/>
    </symbol>
    <symbol id="rotate-right" viewBox="0 0 20 20">
      <title>rotate-right</title><path d="M15,15.3l1.5,1.5a8.4,8.4,0,0,0,1.7-4.1H16.1A6.4,6.4,0,0,1,15,15.3M11.3,18v2a8.4,8.4,0,0,0,4.1-1.7l-1.5-1.5a6.1,6.1,0,0,1-2.6,1.1m7-7.3a8.4,8.4,0,0,0-1.7-4.1L15,8a6.1,6.1,0,0,1,1.1,2.6M14,4.8,9.2,0V3.2A8.4,8.4,0,0,0,9.2,20V17.9a6.3,6.3,0,0,1,0-12.5V9.5Z"/>
    </symbol>
    <symbol id="save-to-collection" viewBox="0 0 20 20">
      <title>save-to-collection</title><path d="M13.3,6.7H2.2V2.2H13.3M10,17.4a3.3,3.3,0,1,1,3.3-3.3A3.3,3.3,0,0,1,10,17.4M15.6,0H2.2A2.2,2.2,0,0,0,0,2.2V17.8A2.2,2.2,0,0,0,2.2,20H17.8A2.2,2.2,0,0,0,20,17.8V4.4Z"/>
    </symbol>
    <symbol id="search" viewBox="0 0 20 20">
      <title>search</title><path d="M7.4,0a7.4,7.4,0,0,1,5.6,12.3l.3.3h.9L20,18.3,18.3,20l-5.7-5.7v-.9l-.3-.3A7.4,7.4,0,1,1,7.4,0m0,2.3a5.1,5.1,0,1,0,5.1,5.1A5.1,5.1,0,0,0,7.4,2.3Z"/>
    </symbol>
    <symbol id="settings" viewBox="0 0 20 20">
      <title>settings</title><path d="M10,13.9a3.5,3.5,0,1,1,3.5-3.5A3.5,3.5,0,0,1,10,13.9M17.4,11a7.8,7.8,0,0,0,.1-1,8.6,8.6,0,0,0-.1-1l2.1-1.6a.5.5,0,0,0,.1-.6l-2-3.5a.5.5,0,0,0-.6-.2l-2.5,1a7.2,7.2,0,0,0-1.7-1L12.5.4A.5.5,0,0,0,12,0H8a.5.5,0,0,0-.5.4L7.1,3.1a7.2,7.2,0,0,0-1.7,1L3,3.1a.5.5,0,0,0-.6.2L.3,6.7a.5.5,0,0,0,.1.6L2.6,9a8.6,8.6,0,0,0-.1,1,7.8,7.8,0,0,0,.1,1L.5,12.6a.5.5,0,0,0-.1.6l2,3.5A.5.5,0,0,0,3,17l2.5-1a6.9,6.9,0,0,0,1.7,1l.4,2.6A.5.5,0,0,0,8,20h4a.5.5,0,0,0,.5-.4l.4-2.6a7.3,7.3,0,0,0,1.7-1l2.5,1a.5.5,0,0,0,.6-.2l2-3.5a.5.5,0,0,0-.1-.6Z"/>
    </symbol>
    <symbol id="share" viewBox="0 0 20 20">
      <title>share</title><path d="M19,9.5l-7-7v4c-7,1-10,6-11,11,2.5-3.5,6-5.1,11-5.1v4.1Z"/>
    </symbol>
    <symbol id="single-view" viewBox="0 0 20 20">
      <title>single-view</title><path d="M18.9,0H1.1A1.1,1.1,0,0,0,0,1.1V18.9A1.1,1.1,0,0,0,1.1,20H18.9A1.1,1.1,0,0,0,20,18.9V1.1A1.1,1.1,0,0,0,18.9,0"/>
    </symbol>
    <symbol id="sort" viewBox="0 0 20 20">
      <title>sort</title><path d="M7.3,3,10.6-.2,13.8,3H7m6.8,14-3.2,3.3L7.3,17H14M7,12H4.1l-.7,3H1L4.1,5h3l3.1,10H7.8L7,12.3M4,10H6.6L6,7.9l-.3-1L5.5,6h0L5.3,7,5,7.9,4.4,10M11,15V13.5l5-7.1V7H12V5h7V6.3l-5,6.6h5v2Z"/>
    </symbol>
    <symbol id="star-outline" viewBox="0 0 24 24">
      <title>star-outline</title><path d="M12,15.9,8.2,18.2l1-4.3L5.9,11l4.4-.4,1.7-4,1.7,4,4.4.4-3.3,2.9,1,4.3M22,9.7l-7.2-.6L12,2.5,9.2,9.1,2,9.7l5.4,4.7-1.6,7L12,17.8l6.2,3.7-1.6-7Z"/>
    </symbol>
    <symbol id="star-solid" viewBox="0 0 24 24">
      <title>star-solid</title><path d="M12,17.8l6.2,3.7-1.6-7L22,9.7l-7.2-.6L12,2.5,9.2,9.1,2,9.7l5.4,4.7-1.6,7Z"/>
    </symbol>
    <symbol id="unlocked" viewBox="0 0 20 20">
      <title>unlocked</title><path d="M16,6.5a2,2,0,0,1,2,2v10a2,2,0,0,1-2,2H4a2,2,0,0,1-2-2V8.5a2,2,0,0,1,2-2h9v-2a3,3,0,0,0-6,0H5a5,5,0,0,1,10,0v2h1m-6,9a2,2,0,1,0-2-2A2,2,0,0,0,10,15.5Z"/>
    </symbol>
    <symbol id="unpin" viewBox="0 0 20 20">
      <title>unpin</title><path d="M1,3.3,2.3,2,19,18.7,17.7,20l-5.9-5.9V20H10.2V14H5V12l2-2V9.3l-6-6M15,10l2,2v2h-.2L7,4.2V2H6V0H16V2H15Z"/>
    </symbol>
    <symbol id="upload" viewBox="0 0 20 20">
      <title>upload</title><path d="M6.5,15.3V8.2H1.8L10,0l8.2,8.2H13.5v7.1H6.5M1.8,20V17.6H18.2V20Z"/>
    </symbol>
    <symbol id="user-placeholder" viewBox="0 0 20 20">
      <title>user-placeholder</title><path d="M10,17.2A7.2,7.2,0,0,1,4,14c0-2,4-3.1,6-3.1S16,12,16,14a7.2,7.2,0,0,1-6,3.2M10,3A3,3,0,1,1,7,6a3,3,0,0,1,3-3m0-3A10,10,0,1,0,20,10,10,10,0,0,0,10,0Z"/>
    </symbol>
    <symbol id="user" viewBox="0 0 20 20">
      <title>user</title><path d="M10,0A5,5,0,1,1,5,5a5,5,0,0,1,5-5m0,12.5c5.5,0,10,2.2,10,5V20H0V17.5C0,14.7,4.5,12.5,10,12.5Z"/>
    </symbol>
    <symbol id="view-mode-compare" viewBox="0 0 24 24">
      <title>view-mode-compare</title><path d="M22,20.9V3.1A1.1,1.1,0,0,0,20.9,2H14.2a1.1,1.1,0,0,0-1.1,1.1V20.9A1.1,1.1,0,0,0,14.2,22h6.7A1.1,1.1,0,0,0,22,20.9m-11.1,0V3.1A1.1,1.1,0,0,0,9.8,2H3.1A1.1,1.1,0,0,0,2,3.1V20.9A1.1,1.1,0,0,0,3.1,22H9.8A1.1,1.1,0,0,0,10.9,20.9Z"/>
    </symbol>
    <symbol id="view-mode-filmstrip" viewBox="0 0 24 24">
      <title>view-mode-filmstrip</title><path d="M20.9,2.5H3.1A1.1,1.1,0,0,0,2,3.6v9.5a1.1,1.1,0,0,0,1.1,1.1H20.9A1.1,1.1,0,0,0,22,13.1V3.6a1.1,1.1,0,0,0-1.1-1.1"/><rect x="2" y="16.2" width="5.3" height="5.26" rx="0.9" ry="0.9"/><rect x="9.4" y="16.2" width="5.3" height="5.26" rx="0.9" ry="0.9"/><rect x="16.7" y="16.2" width="5.3" height="5.26" rx="0.9" ry="0.9"/>
    </symbol>
    <symbol id="view-mode-full-page" viewBox="0 0 24 24">
      <title>view-mode-full-page</title><path d="M9.5,13.1l1.4,1.4L6.4,19H10v2H3V14H5v3.3l4.5-4.5m1.4-3.6L9.5,10.6,5,6.1V10H3V3h7V5H6.4l4.5,4.5m3.6,3.3L19,17.3V14h2v7H14V19h3.6l-4.5-4.5,1.4-1.4M13.1,9.5,17.6,5H14V3h7v7H19V6.4l-4.5,4.5Z"/>
    </symbol>
    <symbol id="view-mode-full" viewBox="0 0 24 24">
      <title>view-mode-full</title><path d="M20.9,2.5H3.1A1.1,1.1,0,0,0,2,3.6V20.4a1.1,1.1,0,0,0,1.1,1.1H20.9A1.1,1.1,0,0,0,22,20.4V3.6a1.1,1.1,0,0,0-1.1-1.1"/>
    </symbol>
    <symbol id="view-mode-fullscreen" viewBox="0 0 24 24">
      <title>view-mode-fullscreen</title><path d="M2.5,2.5H9.3V5.2H5.2V9.3H2.5V2.5m12.2,0h6.8V9.3H18.8V5.2H14.7V2.5m4.1,12.2h2.7v6.8H14.7V18.8h4.1V14.7M9.3,18.8v2.7H2.5V14.7H5.2v4.1Z"/>
    </symbol>
    <symbol id="view-mode-grid" viewBox="0 0 24 24">
      <title>view-mode-grid</title><path d="M15.5,5.5v6h5v-6m-11,6h5v-6h-5m6,13h5v-6h-5m-6,6h5v-6h-5m-6,6h5v-6h-5m0-1h5v-6h-5Z"/>
    </symbol>
    <symbol id="view-mode-list" viewBox="0 0 24 24">
      <title>view-mode-list</title><path d="M8.5,5V9h12V5M8.5,19h12V15H8.5m0-1h12V10H8.5m-5-1h4V5h-4m0,14h4V15h-4m0-1h4V10h-4Z"/>
    </symbol>
    <symbol id="watch" viewBox="0 0 20 20">
      <title>watch</title><path d="M10,7.3A2.7,2.7,0,1,0,12.7,10,2.7,2.7,0,0,0,10,7.3m0,7.3A4.5,4.5,0,1,1,14.5,10,4.5,4.5,0,0,1,10,14.5M10,3.2A10.8,10.8,0,0,0,0,10a10.7,10.7,0,0,0,20,0A10.8,10.8,0,0,0,10,3.2Z"/>
    </symbol>
    <symbol id="watch_1" viewBox="0 0 20 20">
      <title>watch_1</title><path d="M10,7.3A2.7,2.7,0,1,1,7.3,10,2.7,2.7,0,0,1,10,7.3m0-4.1A10.8,10.8,0,0,1,20,10,10.7,10.7,0,0,1,0,10,10.8,10.8,0,0,1,10,3.2M2,10a8.9,8.9,0,0,0,16,0A8.9,8.9,0,0,0,2,10Z"/>
    </symbol>
    <symbol id="print" viewBox="0 0 24 24">
      <title>print</title><path d="M18,3H6V7H18M19,12A1,1 0 0,1 18,11A1,1 0 0,1 19,10A1,1 0 0,1 20,11A1,1 0 0,1 19,12M16,19H8V14H16M19,8H5A3,3 0 0,0 2,11V17H6V21H18V17H22V11A3,3 0 0,0 19,8Z" />
    </symbol>
    <symbol id="new-window" viewBox="0 0 24 24">
      <title>New Window</title><path d="M14,3V5H17.59L7.76,14.83L9.17,16.24L19,6.41V10H21V3M19,19H5V5H12V3H5C3.89,3 3,3.9 3,5V19A2,2 0 0,0 5,21H19A2,2 0 0,0 21,19V12H19V19Z" />
    </symbol>
    <symbol id="approved" viewBox="0 0 20 20">
      <title>Approved</title><path d="M10,0A10,10,0,1,1,0,10,10,10,0,0,1,10,0M9,14.5l7-7L14.6,6.1,9,11.7,5.9,8.6,4.5,10Z"/>
    </symbol>
    <symbol id="disapproved" viewBox="0 0 20 20">
      <title>Disapproved</title><path d="M10,0A10,10,0,1,1,0,10,10,10,0,0,1,10,0m3.6,5L10,8.6,6.4,5,5,6.4,8.6,10,5,13.6,6.4,15,10,11.4,13.6,15,15,13.6,11.4,10,15,6.4Z"/>
    </symbol>
    <symbol id="metadata" viewBox="0 0 20 20">
      <title>metadata</title><path d="M11 7h5.5L11 1.5V7"/><path d="M12 0H4a2 2 0 0 0-2 2v16a2 2 0 0 0 2 2h12a2 2 0 0 0 2-2V6zm-1 18H9v-5h2zm0-7H9V9h2zm0-4V1.5L16.5 7z"/>
    </symbol>
    <symbol id="checkmark" viewBox="0 0 20 20">
      <title>checkmark</title><path d="M20,3.9,6.3,17.7,0,11.4,1.6,9.8l4.7,4.7L18.4,2.3Z"/>
    </symbol>
    <symbol id="notes" viewBox="0 0 20 20">
      <title>notes</title><path d="M12.2,7.8h6.1L12.2,1.7V7.8M2.2,0H13.3L20,6.7V17.8A2.2,2.2,0,0,1,17.8,20H2.2A2.2,2.2,0,0,1,0,17.8V2.2A2.2,2.2,0,0,1,2.2,0m0,2.2V17.8H17.8V10H10V2.2Z"/>
    </symbol>
    <symbol id="copy" viewBox="0 0 20 20">
      <title>copy</title><path d="M16.8,18.2H6.8V5.5h10m0-1.8H6.8A1.8,1.8,0,0,0,5,5.5V18.2A1.8,1.8,0,0,0,6.8,20h10a1.8,1.8,0,0,0,1.8-1.8V5.5a1.8,1.8,0,0,0-1.8-1.8M14.1,0H3.2A1.8,1.8,0,0,0,1.4,1.8V14.5H3.2V1.8H14.1Z"/>
    </symbol>
    <symbol id="menu" viewBox="0 0 20 20">
      <title>menu</title><path d="M0,3.3H20V5.6H0V3.3M0,8.9H20v2.2H0V8.9m0,5.6H20v2.2H0Z"/>
    </symbol>
    <symbol id="save" viewBox="0 0 20 20">
      <title>save</title><path d="M13.3,6.7H2.2V2.2H13.3M10,17.8a3.3,3.3,0,1,1,3.3-3.3A3.3,3.3,0,0,1,10,17.8M15.6,0H2.2A2.2,2.2,0,0,0,0,2.2V17.8A2.2,2.2,0,0,0,2.2,20H17.8A2.2,2.2,0,0,0,20,17.8V4.4Z"/>
    </symbol>
    <symbol id="sync" viewBox="0 0 20 20">
      <title>sync</title><path d="M10,15.5A5.5,5.5,0,0,1,4.5,10a5.4,5.4,0,0,1,.6-2.5L3.9,6.1A7.3,7.3,0,0,0,10,17.3V20l3.6-3.6L10,12.7m0-10V0L6.4,3.6,10,7.3V4.5A5.5,5.5,0,0,1,15.5,10a5.4,5.4,0,0,1-.6,2.5l1.3,1.3A7.3,7.3,0,0,0,10,2.7Z" />
    </symbol>
    </svg>
