<svg xmlns="http://www.w3.org/2000/svg" xmlns:xlink="http://www.w3.org/1999/xlink" viewBox="0 0 95.4 70"><defs><linearGradient id="a" x1="11.5" y1="82.48" x2="104.5" y2="12.98" gradientUnits="userSpaceOnUse"><stop offset="0" stop-color="#2284ff"/><stop offset="1" stop-color="#00e4ff"/></linearGradient><linearGradient id="b" x1="8.48" y1="78.44" x2="101.48" y2="8.94" xlink:href="#a"/><linearGradient id="c" x1="30.1" y1="107.38" x2="123.1" y2="37.88" xlink:href="#a"/><linearGradient id="d" x1="1.66" y1="69.31" x2="94.66" y2="-0.19" xlink:href="#a"/><linearGradient id="e" x1="-7.13" y1="57.55" x2="85.87" y2="-11.95" xlink:href="#a"/><linearGradient id="f" x1="10.5" y1="81.14" x2="103.5" y2="11.64" xlink:href="#a"/><linearGradient id="g" x1="22.27" y1="96.89" x2="115.27" y2="27.39" xlink:href="#a"/></defs><title>group-collection</title><path d="M82.9,34h.6a1.4,1.4,0,0,0,.6-2.6c-3.2-1.6-9.3-1.6-9.6-1.6a1.4,1.4,0,0,0,0,2.8C76.1,32.7,80.7,32.9,82.9,34Z" style="fill:url(#a)"/><path d="M91.1,51.4l-5.8-1.6a.6.6,0,0,1-.4-.6V47.3l1.3-1.1a10.3,10.3,0,0,0,3.1-7.4V36.1l.6-1.1a8.9,8.9,0,0,0,.9-4V23.8a1.4,1.4,0,0,0-1.4-1.4H76a8.9,8.9,0,0,0-8.9,8.9h0a7.4,7.4,0,0,0,.8,3.3l.7,1.4v2.3a10.9,10.9,0,0,0,4.5,8.8v2c0,.3,0,.4-1.2.8l-2.8.8-8.1-3a1.4,1.4,0,0,0-.4-1.1L58.1,44V39.4l.8-.7A16.4,16.4,0,0,0,64,26.8V23.1a16.1,16.1,0,0,0,1.5-6.8V1.4A1.4,1.4,0,0,0,64.1,0H43.2A13.4,13.4,0,0,0,29.9,13.3v3a16.1,16.1,0,0,0,1.5,6.8v3.2a17.1,17.1,0,0,0,6,13V44l-2.6,2.7a1.4,1.4,0,0,0-.4,1.1l-8.6,3.1-1.7.9-1.3-.7c4-1.7,5.3-4.2,5.4-4.3a1.4,1.4,0,0,0,0-1.2c-1-2-1.1-5.7-1.2-8.7,0-1-.1-1.9-.1-2.8-.5-6.7-5.6-11.8-11.8-11.8S3.5,27.5,3,34.2c-.1.8-.1,1.8-.1,2.8-.1,3-.2,6.7-1.2,8.7a1.4,1.4,0,0,0,0,1.2c.1.1,1.3,2.6,5.4,4.3L3.2,53A5.8,5.8,0,0,0,0,58.3V68.6a1.4,1.4,0,0,0,2.8,0V58.3a3.1,3.1,0,0,1,1.7-2.8l4.7-2.3,1.6,1.5a5.9,5.9,0,0,0,8.1,0l1.6-1.5L22,54a7.4,7.4,0,0,0-1.1,3.9V68.6a1.4,1.4,0,0,0,2.8,0V57.9a4.6,4.6,0,0,1,3-4.3l9.1-3.3,3.8,5.7a2.9,2.9,0,0,0,2.1,1.3H42a2.9,2.9,0,0,0,2-.8l2.3-2.3V68.6a1.4,1.4,0,1,0,2.8,0V54.1l2.3,2.3a2.9,2.9,0,0,0,2,.8h.3a2.9,2.9,0,0,0,2.1-1.3l3.8-5.7,9.1,3.3a4.6,4.6,0,0,1,3,4.3V68.6a1.4,1.4,0,0,0,2.8,0V57.9a7.4,7.4,0,0,0-2.1-5.1h.3l1.3-.5,3.6,3.6V68.6a1.4,1.4,0,0,0,2.8,0V55.7L84,52.2l.6.2,5.8,1.6a3.1,3.1,0,0,1,2.2,3V68.6a1.4,1.4,0,0,0,2.8,0V57A5.9,5.9,0,0,0,91.1,51.4ZM20.7,48.9V47.3a10.3,10.3,0,0,0,3.7-4.6,15.4,15.4,0,0,0,.8,3.3A10.1,10.1,0,0,1,20.7,48.9ZM5.8,34.4a10.4,10.4,0,0,1,2.8-6.5,8.7,8.7,0,0,1,12.5,0,10.4,10.4,0,0,1,2.8,6.5c.1.8.1,1.7.1,2.6v.2a12.6,12.6,0,0,0-6.9-5,17.5,17.5,0,0,0-5.3-.8,1.4,1.4,0,0,0-1,.4L8.3,34.4a1.4,1.4,0,0,0,2,1.9l2.1-2.2c1.8.1,7.6.8,9.9,5.7a7.6,7.6,0,0,1-15-1.2,1.4,1.4,0,0,0-1.4-1.4H5.6V37C5.7,36,5.7,35.1,5.8,34.4ZM4.5,46.1a15.4,15.4,0,0,0,.8-3.3A10.4,10.4,0,0,0,9,47.3v1.7A10,10,0,0,1,4.5,46.1Zm8.2,6.7-1.3-1.2a2.9,2.9,0,0,0,.3-1.4V48.6a10.4,10.4,0,0,0,6.2,0v1.5a2.9,2.9,0,0,0,.3,1.4L17,52.7A3.1,3.1,0,0,1,12.7,52.7ZM34.2,26.3V22.8a1.4,1.4,0,0,0-.1-.6,13.4,13.4,0,0,1-1.4-5.9v-3A10.6,10.6,0,0,1,43.2,2.8H62.7V16.3a13.4,13.4,0,0,1-1.4,5.9,1.4,1.4,0,0,0-.1.6v4A13.4,13.4,0,0,1,57,36.7l-1.1.9h0a13.4,13.4,0,0,1-9.1,2.7A13.8,13.8,0,0,1,34.2,26.3ZM46.6,43.1h1.1a16.2,16.2,0,0,0,7.5-1.9v2.6L47.7,49l-7.6-5.2V41.2A15.7,15.7,0,0,0,46.6,43.1ZM42,54.4h-.1l-4.3-6.5,1.4-1.5,6.6,4.5Zm11.5,0h-.1l-3.5-3.5,6.6-4.5,1.4,1.5Zm17.9-16V35.7a1.4,1.4,0,0,0-.1-.6l-.9-1.7a4.6,4.6,0,0,1-.5-2h0A6.1,6.1,0,0,1,76,25.2h12V31a6.1,6.1,0,0,1-.6,2.7l-.7,1.4a1.4,1.4,0,0,0-.1.6v3a7.6,7.6,0,0,1-7.8,7.6A7.8,7.8,0,0,1,71.5,38.4Zm7.2,10.7H79a10.4,10.4,0,0,0,3.1-.5v.6a3.3,3.3,0,0,0,.1.8L79,53.2,75.9,50a3.8,3.8,0,0,0,.1-.8v-.6A9.8,9.8,0,0,0,78.7,49.1Z" style="fill:url(#b)"/><path d="M88,58.2a1.4,1.4,0,0,0-1.4,1.4v9a1.4,1.4,0,0,0,2.8,0v-9A1.4,1.4,0,0,0,88,58.2Z" style="fill:url(#c)"/><path d="M7.4,60.1A1.4,1.4,0,0,0,6,61.5v7.1a1.4,1.4,0,0,0,2.8,0V61.5A1.4,1.4,0,0,0,7.4,60.1Z" style="fill:url(#d)"/><path d="M38.6,16.1h.1a44.1,44.1,0,0,1,9.1-.4c4.4.3,7.5,1.4,9.4,3.2a1.4,1.4,0,1,0,2-2c-5.3-5.3-16.3-4.3-20.8-3.6a2.9,2.9,0,0,0-2.4,2.9v3.2a1.4,1.4,0,0,0,2.8,0V16.1Z" style="fill:url(#e)"/><path d="M31.3,61.2a1.4,1.4,0,0,0-1.4,1.4v6a1.4,1.4,0,1,0,2.8,0v-6A1.4,1.4,0,0,0,31.3,61.2Z" style="fill:url(#f)"/><path d="M64.1,61.2a1.4,1.4,0,0,0-1.4,1.4v6a1.4,1.4,0,1,0,2.8,0v-6A1.4,1.4,0,0,0,64.1,61.2Z" style="fill:url(#g)"/></svg>