<svg xmlns="http://www.w3.org/2000/svg" xmlns:xlink="http://www.w3.org/1999/xlink" viewBox="0 0 58.6 70"><defs><linearGradient id="a" x1="-20.93" y1="45.57" x2="38.07" y2="-19.43" gradientUnits="userSpaceOnUse"><stop offset="0" stop-color="#007fff"/><stop offset="1" stop-color="#00e4ff"/></linearGradient><linearGradient id="b" x1="3.33" y1="67.58" x2="62.33" y2="2.58" xlink:href="#a"/><linearGradient id="c" x1="10.13" y1="73.76" x2="69.13" y2="8.76" xlink:href="#a"/><linearGradient id="d" x1="17.66" y1="80.59" x2="76.66" y2="15.59" xlink:href="#a"/><linearGradient id="e" x1="10.82" y1="74.39" x2="69.82" y2="9.39" xlink:href="#a"/><linearGradient id="f" x1="23.1" y1="85.53" x2="82.1" y2="20.53" xlink:href="#a"/><linearGradient id="g" x1="-0.52" y1="64.09" x2="58.48" y2="-0.91" xlink:href="#a"/></defs><title>project-collection</title><path d="M20.5,18.5H3.6A3.6,3.6,0,0,1,0,14.9V3.6A3.6,3.6,0,0,1,3.6,0h7l2.1,2.1h7.9a3.6,3.6,0,0,1,3.6,3.6v9.2A3.6,3.6,0,0,1,20.5,18.5ZM3.6,2.9a.7.7,0,0,0-.7.7V14.9a.7.7,0,0,0,.7.7h17a.7.7,0,0,0,.7-.7V5.7a.7.7,0,0,0-.7-.7H11.5L9.3,2.9Z" style="fill:url(#a)"/><path d="M42.5,33.7H35.9a2.4,2.4,0,0,1-2.4-2.4V24.7a2.4,2.4,0,0,1,2.4-2.4h6.6a2.4,2.4,0,0,1,2.4,2.4v6.6A2.4,2.4,0,0,1,42.5,33.7Zm-6.1-2.9H42V25.3H36.4Z" style="fill:url(#b)"/><path d="M42.5,47.4H35.9A2.4,2.4,0,0,1,33.5,45V38.4A2.4,2.4,0,0,1,35.9,36h6.6a2.4,2.4,0,0,1,2.4,2.4V45A2.4,2.4,0,0,1,42.5,47.4Zm-6.1-2.9H42V38.9H36.4Z" style="fill:url(#c)"/><path d="M56.2,47.4H49.6A2.4,2.4,0,0,1,47.3,45V38.4A2.4,2.4,0,0,1,49.6,36h6.6a2.4,2.4,0,0,1,2.4,2.4V45A2.4,2.4,0,0,1,56.2,47.4Zm-6.1-2.9h5.6V38.9H50.1Z" style="fill:url(#d)"/><path d="M56.2,33.7H49.6a2.4,2.4,0,0,1-2.4-2.4V24.7a2.4,2.4,0,0,1,2.4-2.4h6.6a2.4,2.4,0,0,1,2.4,2.4v6.6A2.4,2.4,0,0,1,56.2,33.7Zm-6.1-2.9h5.6V25.3H50.1Z" style="fill:url(#e)"/><path d="M54.1,70h-17a3.6,3.6,0,0,1-3.6-3.6V55.1a3.6,3.6,0,0,1,3.6-3.6h7l2.1,2.1h7.9a3.6,3.6,0,0,1,3.6,3.6v9.2A3.6,3.6,0,0,1,54.1,70Zm-17-15.6a.7.7,0,0,0-.7.7V66.4a.7.7,0,0,0,.7.7h17a.7.7,0,0,0,.7-.7V57.2a.7.7,0,0,0-.7-.7H45l-2.1-2.1Z" style="fill:url(#f)"/><path d="M11.9,24.2a1.4,1.4,0,0,1,1.4,1.4v6.7a1.4,1.4,0,0,0,1.4,1.4h11a1.4,1.4,0,0,1,1.4,1.4h0a1.4,1.4,0,0,1-1.4,1.4h-11a1.4,1.4,0,0,0-1.4,1.4v20a1.4,1.4,0,0,0,1.4,1.4h11a1.4,1.4,0,0,1,1.4,1.4h0a1.4,1.4,0,0,1-1.4,1.4H11.9a1.4,1.4,0,0,1-1.4-1.4V25.5a1.4,1.4,0,0,1,1.4-1.4h0m0-2.9h0a4.3,4.3,0,0,0-4.2,4.2V60.3a4.3,4.3,0,0,0,4.2,4.2H25.6a4.2,4.2,0,0,0,0-8.5H16.1V39.1h9.4a4.2,4.2,0,0,0,0-8.5H16.1V25.5a4.3,4.3,0,0,0-4.2-4.2Z" style="fill:url(#g)"/></svg>